<svg width="20" height="20" viewBox="0 0 20 20" fill="none" xmlns="http://www.w3.org/2000/svg">
<rect width="20" height="20" rx="10" fill="#1AB7EA"/>
<path d="M16.7275 6.88615C16.6642 8.28615 15.73 10.2195 13.925 12.6695C12.0567 15.2195 10.4733 16.5028 9.19083 16.5028C8.38333 16.5028 7.71833 15.7195 7.16417 14.1695C6.8 12.7362 6.42 11.3195 6.05583 9.88615C5.64417 8.33615 5.20083 7.55282 4.72583 7.55282C4.63083 7.55282 4.26667 7.78615 3.64917 8.23615L3 7.35282C3.68083 6.71948 4.34583 6.10282 5.01083 5.46948C5.91333 4.65282 6.59417 4.21948 7.05333 4.16948C8.11417 4.06948 8.77917 4.83615 9.0325 6.46948C9.30167 8.25282 9.49167 9.35282 9.58667 9.78615C9.8875 11.2528 10.2358 12.0028 10.6 12.0028C10.885 12.0028 11.3125 11.5195 11.8983 10.5695C12.4683 9.61948 12.785 8.88615 12.8167 8.38615C12.8958 7.56948 12.595 7.15282 11.8983 7.15282C11.5658 7.15282 11.2333 7.23615 10.885 7.38615C11.5658 5.05282 12.8483 3.93615 14.7483 4.00282C16.1417 4.03615 16.8067 5.00282 16.7275 6.88615Z" fill="white"/>
</svg>
